HIERARCHY
ROOT Hips
{
    OFFSET   0.000000   0.000000   0.000000
    CHANNELS 6 Xposition Yposition Zposition Zrotation Xrotation Yrotation
    JOINT Chest
    {
        OFFSET   0.000000   8.007230   0.000000
        CHANNELS 3 Zrotation Xrotation Yrotation
        JOINT Chest2
        {
            OFFSET   0.000000  22.077100   0.000000
            CHANNELS 3 Zrotation Xrotation Yrotation
            JOINT Neck
            {
                OFFSET   0.000000  23.255100   0.000000
                CHANNELS 3 Zrotation Xrotation Yrotation
                JOINT Head
                {
                    OFFSET   0.000000  14.370100   1.956600
                    CHANNELS 3 Zrotation Xrotation Yrotation
                    End Site
                    {
                        OFFSET   0.000000  19.566000   0.000000
                    }
                }
            }
            JOINT LeftCollar
            {
                OFFSET   3.911900  19.017000  -0.467063
                CHANNELS 3 Zrotation Xrotation Yrotation
                JOINT LeftShoulder
                {
                    OFFSET  10.383700   0.000000   0.000000
                    CHANNELS 3 Zrotation Xrotation Yrotation
                    JOINT LeftElbow
                    {
                        OFFSET  26.662100   0.001193   0.000980
                        CHANNELS 3 Zrotation Xrotation Yrotation
                        JOINT LeftWrist
                        {
                            OFFSET  28.869000  -0.000059  -0.000082
                            CHANNELS 3 Zrotation Xrotation Yrotation
                            JOINT LeftFinger0
                            {
                                OFFSET   2.044650  -2.323450   3.252850
                                CHANNELS 3 Zrotation Xrotation Yrotation
                                JOINT LeftFinger01
                                {
                                    OFFSET   3.088130   0.000000   0.000000
                                    CHANNELS 3 Zrotation Xrotation Yrotation
                                    JOINT LeftFinger02
                                    {
                                        OFFSET   2.639460   0.000000   0.000000
                                        CHANNELS 3 Zrotation Xrotation Yrotation
                                        End Site
                                        {
                                            OFFSET   2.582190   0.000000   0.000000
                                        }
                                    }
                                }
                            }
                            JOINT LeftFinger1
                            {
                                OFFSET   8.364480   0.000000   3.252850
                                CHANNELS 3 Zrotation Xrotation Yrotation
                                JOINT LeftFinger11
                                {
                                    OFFSET   4.646930   0.000000   0.000000
                                    CHANNELS 3 Zrotation Xrotation Yrotation
                                    JOINT LeftFinger12
                                    {
                                        OFFSET   2.323470   0.000000   0.000000
                                        CHANNELS 3 Zrotation Xrotation Yrotation
                                        End Site
                                        {
                                            OFFSET   2.273050   0.000000   0.000000
                                        }
                                    }
                                }
                            }
                            JOINT LeftFinger2
                            {
                                OFFSET   8.364490   0.000016   1.078090
                                CHANNELS 3 Zrotation Xrotation Yrotation
                                JOINT LeftFinger21
                                {
                                    OFFSET   5.111610   0.000000   0.000000
                                    CHANNELS 3 Zrotation Xrotation Yrotation
                                    JOINT LeftFinger22
                                    {
                                        OFFSET   2.788150   0.000016   0.000000
                                        CHANNELS 3 Zrotation Xrotation Yrotation
                                        End Site
                                        {
                                            OFFSET   2.727660   0.000000   0.000000
                                        }
                                    }
                                }
                            }
                            JOINT LeftFinger3
                            {
                                OFFSET   7.899780   0.000015  -1.078090
                                CHANNELS 3 Zrotation Xrotation Yrotation
                                JOINT LeftFinger31
                                {
                                    OFFSET   4.646930   0.000000   0.000000
                                    CHANNELS 3 Zrotation Xrotation Yrotation
                                    JOINT LeftFinger32
                                    {
                                        OFFSET   2.323470   0.000000   0.000000
                                        CHANNELS 3 Zrotation Xrotation Yrotation
                                        End Site
                                        {
                                            OFFSET   2.273050   0.000000   0.000000
                                        }
                                    }
                                }
                            }
                            JOINT LeftFinger4
                            {
                                OFFSET   7.435090   0.000000  -3.252850
                                CHANNELS 3 Zrotation Xrotation Yrotation
                                JOINT LeftFinger41
                                {
                                    OFFSET   3.717550   0.000000   0.000000
                                    CHANNELS 3 Zrotation Xrotation Yrotation
                                    JOINT LeftFinger42
                                    {
                                        OFFSET   1.858770   0.000000   0.000000
                                        CHANNELS 3 Zrotation Xrotation Yrotation
                                        End Site
                                        {
                                            OFFSET   1.818440   0.000000   0.000000
                                        }
                                    }
                                }
                            }
                        }
                    }
                }
            }
            JOINT RightCollar
            {
                OFFSET  -3.911910  19.017000  -0.467062
                CHANNELS 3 Zrotation Xrotation Yrotation
                JOINT RightShoulder
                {
                    OFFSET -10.383700   0.000014   0.000000
                    CHANNELS 3 Zrotation Xrotation Yrotation
                    JOINT RightElbow
                    {
                        OFFSET -26.662100   0.001225   0.001091
                        CHANNELS 3 Zrotation Xrotation Yrotation
                        JOINT RightWrist
                        {
                            OFFSET -28.869000  -0.000020  -0.000085
                            CHANNELS 3 Zrotation Xrotation Yrotation
                            JOINT RightFinger0
                            {
                                OFFSET  -2.044650  -2.323490   3.252850
                                CHANNELS 3 Zrotation Xrotation Yrotation
                                JOINT RightFinger01
                                {
                                    OFFSET  -3.088130   0.000000   0.000000
                                    CHANNELS 3 Zrotation Xrotation Yrotation
                                    JOINT RightFinger02
                                    {
                                        OFFSET  -2.639460   0.000000   0.000000
                                        CHANNELS 3 Zrotation Xrotation Yrotation
                                        End Site
                                        {
                                            OFFSET  -2.582190   0.000000   0.000000
                                        }
                                    }
                                }
                            }
                            JOINT RightFinger1
                            {
                                OFFSET  -8.364480   0.000000   3.252850
                                CHANNELS 3 Zrotation Xrotation Yrotation
                                JOINT RightFinger11
                                {
                                    OFFSET  -4.646930   0.000000   0.000000
                                    CHANNELS 3 Zrotation Xrotation Yrotation
                                    JOINT RightFinger12
                                    {
                                        OFFSET  -2.323470   0.000000   0.000000
                                        CHANNELS 3 Zrotation Xrotation Yrotation
                                        End Site
                                        {
                                            OFFSET  -2.273050   0.000000   0.000000
                                        }
                                    }
                                }
                            }
                            JOINT RightFinger2
                            {
                                OFFSET  -8.364480   0.000000   1.078090
                                CHANNELS 3 Zrotation Xrotation Yrotation
                                JOINT RightFinger21
                                {
                                    OFFSET  -5.111620   0.000000   0.000000
                                    CHANNELS 3 Zrotation Xrotation Yrotation
                                    JOINT RightFinger22
                                    {
                                        OFFSET  -2.788160   0.000000   0.000000
                                        CHANNELS 3 Zrotation Xrotation Yrotation
                                        End Site
                                        {
                                            OFFSET  -2.727660   0.000000   0.000000
                                        }
                                    }
                                }
                            }
                            JOINT RightFinger3
                            {
                                OFFSET  -7.899780   0.000000  -1.078090
                                CHANNELS 3 Zrotation Xrotation Yrotation
                                JOINT RightFinger31
                                {
                                    OFFSET  -4.646930   0.000000   0.000000
                                    CHANNELS 3 Zrotation Xrotation Yrotation
                                    JOINT RightFinger32
                                    {
                                        OFFSET  -2.323470   0.000000   0.000000
                                        CHANNELS 3 Zrotation Xrotation Yrotation
                                        End Site
                                        {
                                            OFFSET  -2.273050   0.000000   0.000000
                                        }
                                    }
                                }
                            }
                            JOINT RightFinger4
                            {
                                OFFSET  -7.435090   0.000000  -3.252850
                                CHANNELS 3 Zrotation Xrotation Yrotation
                                JOINT RightFinger41
                                {
                                    OFFSET  -3.717550   0.000000   0.000000
                                    CHANNELS 3 Zrotation Xrotation Yrotation
                                    JOINT RightFinger42
                                    {
                                        OFFSET  -1.858760   0.000000   0.000000
                                        CHANNELS 3 Zrotation Xrotation Yrotation
                                        End Site
                                        {
                                            OFFSET  -1.818440   0.000000   0.000000
                                        }
                                    }
                                }
                            }
                        }
                    }
                }
            }
        }
    }
    JOINT LeftHip
    {
        OFFSET   9.783030   0.000000   0.000000
        CHANNELS 3 Zrotation Xrotation Yrotation
        JOINT LeftKnee
        {
            OFFSET   0.000063 -41.789100   0.000608
            CHANNELS 3 Zrotation Xrotation Yrotation
            JOINT LeftAnkle
            {
                OFFSET   0.000048 -41.133200  -0.000184
                CHANNELS 3 Zrotation Xrotation Yrotation
                JOINT LeftToe
                {
                    OFFSET   0.000000  -6.358960  14.674500
                    CHANNELS 3 Zrotation Xrotation Yrotation
                    End Site
                    {
                        OFFSET   0.000000   0.000000   3.913200
                    }
                }
            }
        }
    }
    JOINT RightHip
    {
        OFFSET  -9.783030   0.000000   0.000000
        CHANNELS 3 Zrotation Xrotation Yrotation
        JOINT RightKnee
        {
            OFFSET   0.000071 -41.789100   0.001239
            CHANNELS 3 Zrotation Xrotation Yrotation
            JOINT RightAnkle
            {
                OFFSET   0.000037 -41.133200  -0.000166
                CHANNELS 3 Zrotation Xrotation Yrotation
                JOINT RightToe
                {
                    OFFSET   0.000000  -6.358960  14.674500
                    CHANNELS 3 Zrotation Xrotation Yrotation
                    End Site
                    {
                        OFFSET   0.000000   0.000000   3.913200
                    }
                }
            }
        }
    }
}
MOTION
Frames: 4
Frame Time:   0.016667
  0.702644  89.375500   2.263000  -8.495250  -9.444020 -21.595800   1.504820   8.764080  -5.014120   3.856960  17.355900 -10.446000   7.513760  -4.598300   0.604349  12.554100  -8.845300  20.539000  -0.897981  -7.374140  -3.271300 -33.074800  34.793400 -85.097400  23.356400 -20.646000 -94.390200  21.522700   5.997210 -13.498300  46.371400  46.308400 -91.917100 -27.499000   0.006160   0.003316  -8.749510  -0.009847  -0.000788 -45.358100  11.469100 -11.110800 -38.026700  -0.002433   0.002125 -27.937600   0.002323  -0.000096 -42.403100  -0.645548   0.699434 -54.424500   0.001425  -0.006043 -37.981700   0.002118  -0.003634 -36.330600  -0.562777   0.763383 -53.792100  -0.005600   0.000221 -35.976400   0.002115  -0.006309 -23.788400  -0.383654   0.869747 -35.686700   0.002507  -0.000673 -23.767300  -0.002317   0.002738   8.743070 -10.058500   4.460010  37.450500 -10.718000  31.962700 -30.837000 -36.685800  87.866600 -13.512900   9.793980  27.714000 -59.037800  54.332200 108.289000   1.604510  -0.006457  -0.006698  -4.197750   0.000948  -0.000425  28.850200  10.371400  18.082100  24.958700   0.005471  -0.005113  17.471100  -0.005230  -0.003089  28.388300   5.050210   9.251340  42.231800  -0.003845  -0.008269  28.126400  -0.001881   0.002847  28.328200   4.274610   7.871950  37.670000  -0.006196  -0.003889  25.088200  -0.006781   0.004191  36.055200  -0.013316  -0.018940  54.083000  -0.003626  -0.002607  36.019200  -0.003271   0.002072   3.028320  17.476300   6.450660   1.043720   0.336631  18.706100  -2.255920  -7.104700   6.928310   0.000000   0.000000  -0.000000   4.799110  12.169000  -5.344220  -1.068860   2.276120   3.771450  -0.391214  -3.250420   8.545970  -0.000000   0.000000  -0.000000
  0.691863  89.374200   2.276750  -8.476270  -9.422310 -21.568600   1.495360   8.746290  -5.009840   3.835090  17.321500 -10.434600   7.519800  -4.584700   0.603979  12.560600  -8.818260  20.636900  -0.916146  -7.366320  -3.276010 -33.049800  34.771600 -85.088900  23.344300 -20.620000 -94.492200  21.543800   6.098980 -13.568700  46.318000  46.259800 -91.843000 -27.554500   0.006241   0.003419  -8.777270  -0.009834  -0.000862 -46.212000  11.444900 -10.772800 -38.695400  -0.002443   0.002138 -28.591400   0.002323  -0.000101 -41.025300  -0.361069   0.411458 -54.383700   0.001468  -0.006085 -37.592500   0.002064  -0.003670 -37.868800  -0.331203   0.430922 -54.087600  -0.005576   0.000234 -36.557300   0.002093  -0.006385 -23.901000  -0.221925   0.500814 -35.852800   0.002483  -0.000725 -23.877900  -0.002308   0.002734   8.746210 -10.030700   4.454490  37.410300 -10.673400  31.955500 -30.941300 -36.777000  87.637100 -13.437500   9.735390  27.561000 -59.037800  54.332100 108.289000   1.737190  -0.006452  -0.006669  -4.131410   0.000939  -0.000476  29.078200  10.405800  17.982100  25.142400   0.005540  -0.005108  17.599700  -0.005230  -0.003092  28.388000   5.047920   9.247730  42.265100  -0.003856  -0.008238  28.148600  -0.001910   0.002849  28.339400   4.260620   7.843160  37.852200  -0.006216  -0.003953  25.209600  -0.006787   0.004139  36.091000  -0.022554  -0.030659  54.136600  -0.003644  -0.002608  36.054900  -0.003279   0.002067   3.024520  17.448300   6.444300   1.044680   0.350566  18.706800  -2.265550  -7.112580   6.913400   0.000000   0.000000  -0.000000   4.793640  12.154900  -5.368090  -1.055130   2.274270   3.768940  -0.403740  -3.262040   8.545840   0.000000   0.000000   0.000000
  0.680827  89.372900   2.290460  -8.455440  -9.402010 -21.541800   1.485680   8.728410  -5.005630   3.812810  17.286900 -10.423200   7.522700  -4.568180   0.602576  12.563600  -8.786010  20.746500  -0.936923  -7.363120  -3.281700 -33.038600  34.747100 -85.072400  23.328200 -20.593700 -94.579800  21.573000   6.203750 -13.647200  46.217000  46.167600 -91.702900 -27.655700   0.006322   0.003485  -8.827850  -0.009825  -0.000933 -47.089000  11.416300 -10.427000 -39.382200  -0.002454   0.002150 -29.265800   0.002324  -0.000102 -39.931100  -0.093707   0.122318 -54.334500   0.001510  -0.006126 -37.268200   0.002011  -0.003708 -39.616300  -0.100233   0.112628 -54.344400  -0.005550   0.000245 -37.183100   0.002070  -0.006461 -24.029500  -0.062708   0.139427 -36.045000   0.002458  -0.000755 -24.006000  -0.002301   0.002729   8.748990 -10.004500   4.450100  37.376500 -10.642400  31.941500 -31.049800 -36.840800  87.395600 -13.389500   9.704390  27.418400 -59.037800  54.332100 108.289000   1.830910  -0.006446  -0.006643  -4.084550   0.000930  -0.000528  29.672600  10.492300  17.722400  25.620500   0.005609  -0.005103  17.934400  -0.005227  -0.003095  28.386900   5.047600   9.247210  42.269900  -0.003872  -0.008209  28.151800  -0.001940   0.002851  28.341000   4.258620   7.839050  37.878200  -0.006237  -0.004021  25.226900  -0.006792   0.004084  36.096100  -0.023874  -0.032333  54.144300  -0.003665  -0.002610  36.060000  -0.003287   0.002062   3.019670  17.419300   6.435730   1.045970   0.370153  18.707800  -2.276010  -7.124280   6.898830  -0.000000   0.000000   0.000000   4.785240  12.142800  -5.392610  -1.041540   2.270920   3.765740  -0.416393  -3.273860   8.545910  -0.000000   0.000000   0.000000
  0.669926  89.371700   2.304770  -8.438750  -9.386950 -21.516900   1.478700   8.712450  -5.001250   3.796150  17.255900 -10.412100   7.517650  -4.550680   0.599722  12.554800  -8.752810  20.868400  -0.958031  -7.365470  -3.287640 -33.029600  34.715700 -85.062400  23.313100 -20.575700 -94.633200  21.609000   6.288710 -13.728100  46.072000  46.033500 -91.501900 -27.764400   0.006392   0.003438  -8.882190  -0.009827  -0.000995 -47.713600  11.391900 -10.182000 -39.871300  -0.002466   0.002158 -29.761800   0.002317  -0.000102 -39.199700   0.063591  -0.068129 -54.289000   0.001554  -0.006173 -37.040200   0.001960  -0.003741 -41.092700   0.058845  -0.074437 -54.409700  -0.005520   0.000247 -37.627600   0.002045  -0.006530 -24.173200   0.047461  -0.106369 -36.260300   0.002424  -0.000459 -24.149400  -0.002299   0.002740   8.751230  -9.986620   4.449430  37.352300 -10.650300  31.919300 -31.123400 -36.845300  87.178600 -13.438300   9.749780  27.309000 -59.037800  54.332100 108.289000   1.872920  -0.006446  -0.006608  -4.063540   0.000934  -0.000598  30.713600  10.640000  17.269600  26.455800   0.005686  -0.005107  18.519100  -0.005219  -0.003091  28.383200   5.057870   9.267030  42.105000  -0.003881  -0.008160  28.042000  -0.001978   0.002861  28.325200   4.273620   7.871380  37.678900  -0.006262  -0.004103  25.094100  -0.006798   0.004019  36.014500  -0.003800  -0.004880  54.021900  -0.003688  -0.002606  35.978500  -0.003286   0.002062   3.018890  17.402400   6.424630   1.046310   0.378830  18.708700  -2.284720  -7.132090   6.887310  -0.000000   0.000000  -0.000000   4.780180  12.136800  -5.412010  -1.031170   2.267640   3.760500  -0.428744  -3.285140   8.546570   0.000000   0.000000   0.000000
